<svg xmlns="http://www.w3.org/2000/svg" viewBox="0 0 24 24" width="16" height="16" fill="white">
  <!-- File Icon -->
  <path d="M3 3a2 2 0 0 1 2-2h9.982a2 2 0 0 1 1.414.586l4.018 4.018A2 2 0 0 1 21 7.018V21a2 2 0 0 1-2 2H5a2 2 0 0 1-2-2Zm2-.5a.5.5 0 0 0-.5.5v18a.5.5 0 0 0 .5.5h14a.5.5 0 0 0 .5-.5V8.5h-4a2 2 0 0 1-2-2v-4Zm10 0v4a.5.5 0 0 0 .5.5h4a.5.5 0 0 0-.146-.336l-4.018-4.018A.5.5 0 0 0 15 2.5Z"/>
  
  <!-- Angular Logo -->
  <g transform="scale(0.85) translate(2, 5)">
    <path d="M12 4.21L6.186 17.26h2.168l1.169-2.92h4.934l1.17 2.92h2.167L12 4.21z M10.302 12.54L12 8.45l1.698 4.09h-3.396z"/>
  </g>
</svg>
