<svg xmlns="http://www.w3.org/2000/svg" viewBox="0 0 24 24" width="24" height="24" fill="#000000">
  <!-- File Icon -->
  <path d="M3 3a2 2 0 0 1 2-2h9.982a2 2 0 0 1 1.414.586l4.018 4.018A2 2 0 0 1 21 7.018V21a2 2 0 0 1-2 2H5a2 2 0 0 1-2-2Zm2-.5a.5.5 0 0 0-.5.5v18a.5.5 0 0 0 .5.5h14a.5.5 0 0 0 .5-.5V8.5h-4a2 2 0 0 1-2-2v-4Zm10 0v4a.5.5 0 0 0 .5.5h4a.5.5 0 0 0-.146-.336l-4.018-4.018A.5.5 0 0 0 15 2.5Z"/>
  
  <!-- Angular Logo -->
  <g transform="scale(0.5) translate(12, 13)">
    <path d="M12 2l9.3 3.32-1.418 12.31L12 22l-7.882-4.37L2.7 5.32 12 2zm0 2.21L6.186 17.26h2.168l1.169-2.92h4.934l1.17 2.92h2.167L12 4.21zm1.698 8.33h-3.396L12 8.45l1.698 4.09z"/>
  </g>
</svg>
